<?xml version="1.0" encoding="UTF-8"?>
<svg width="133px" height="31px" viewBox="0 0 133 31" version="1.1" xmlns="http://www.w3.org/2000/svg" xmlns:xlink="http://www.w3.org/1999/xlink">
    <title>logo_main@2x</title>
    <g id="MaxSold-Screens" stroke="none" stroke-width="1" fill="none" fill-rule="evenodd">
        <g id="Auction-Dashboard" transform="translate(-36.000000, -20.000000)">
            <g id="Navigation-/-Sidebar-Menu-/-Light" transform="translate(0.000000, 0.000000)">
                <g id="logo_main" transform="translate(36.250000, 20.500000)">
                    <g id="MaxSold-Seller-Colour" transform="translate(1.986488, 2.681282)">
                        <path d="M70.841424,18.114296 C70.841424,19.15124 71.567224,20.533984 74.125536,20.533984 C75.923088,20.533984 76.752704,19.704216 76.752704,18.8746 C76.752704,17.733992 75.404464,17.457352 73.64172,17.180864 C70.495776,16.627736 66.278232,16.281936 66.278232,11.477064 C66.278232,8.296616 69.113032,5.738304 73.606912,5.738304 C78.1356,5.738304 80.935592,8.020128 81.21208,11.615232 L76.407208,11.615232 C76.303392,10.336304 75.819424,9.368064 73.676224,9.368064 C72.29348,9.368064 71.15272,9.81768 71.15272,10.923936 C71.15272,12.237368 72.984776,12.513856 75.127976,12.894312 C78.170104,13.447288 81.869024,14.069424 81.869024,18.044984 C81.869024,22.262528 78.34308,24.025424 73.883552,24.025424 C69.078224,24.025424 66.070904,21.50192 65.967088,18.114296 L70.841424,18.114296" id="Fill-1" fill="#2C2E31"></path>
                        <path d="M87.231432,14.864536 C87.231432,17.699488 89.201808,19.808032 91.898288,19.808032 C94.594464,19.808032 96.772472,17.699488 96.772472,14.864536 C96.772472,11.995536 94.69828,9.955848 92.002104,9.955848 C89.305472,9.955848 87.231432,11.995536 87.231432,14.864536 Z M101.54284,14.864536 C101.54284,19.980856 97.429416,24.094736 92.002104,24.094736 C86.539984,24.094736 82.495568,20.050168 82.495568,14.864536 C82.495568,9.713864 86.574488,5.599984 92.002104,5.599984 C97.429416,5.599984 101.54284,9.713864 101.54284,14.864536 L101.54284,14.864536 Z" id="Fill-2" fill="#2C2E31"></path>
                        <polygon id="Fill-3" fill="#2C2E31" points="102.824656 23.679928 107.664336 23.679928 107.664336 4.4408921e-16 102.824656 4.4408921e-16"></polygon>
                        <path d="M123.1542,14.89904 C123.1542,12.272176 120.976192,10.128672 118.314064,10.128672 C115.6872,10.128672 113.647512,12.272176 113.647512,14.89904 C113.647512,17.561168 115.6872,19.669864 118.314064,19.669864 C121.079704,19.669864 123.1542,17.561168 123.1542,14.89904 Z M123.084888,22.36604 C121.840312,23.33428 119.938944,23.921912 117.899712,23.921912 C113.059576,23.921912 108.946,20.015664 108.946,14.89904 C108.946,9.783176 113.059576,5.772808 117.899712,5.772808 C119.938944,5.772808 121.840312,6.395248 123.084888,7.363184 L123.084888,4.4408921e-16 L127.890064,4.4408921e-16 L127.890064,23.679928 L123.084888,23.679928 L123.084888,22.36604 L123.084888,22.36604 Z" id="Fill-4" fill="#2C2E31"></path>
                        <path d="M4.736016,7.881504 C5.635096,6.98288 7.259824,5.807616 9.644856,5.807616 C11.684544,5.807616 13.44744,6.533568 14.726672,8.227304 C16.109568,6.740744 17.941472,5.807616 20.53444,5.807616 C24.855496,5.807616 27.44816,8.607608 27.44816,12.859504 L27.44816,23.8526 L22.67764,23.8526 L22.67764,13.654616 C22.67764,11.580424 21.605736,10.232488 19.704672,10.232488 C17.526816,10.232488 16.109568,11.68424 16.109568,14.069424 L16.109568,23.8526 L11.3734,23.8526 L11.3734,13.654616 C11.3734,11.580424 10.301952,10.232488 8.400584,10.232488 C6.222576,10.232488 4.805328,11.68424 4.805328,14.069424 L4.805328,23.8526 L0,23.8526 L0,6.118608 L4.736016,6.118608 L4.736016,7.881504" id="Fill-5" fill="#2C2E31"></path>
                        <path d="M33.777744,15.071864 C33.777744,17.733992 35.817432,19.842536 38.444448,19.842536 C41.210088,19.842536 43.284432,17.733992 43.284432,15.071864 C43.284432,12.444848 41.106424,10.301496 38.444448,10.301496 C35.817432,10.301496 33.777744,12.444848 33.777744,15.071864 Z M43.21512,22.538864 C41.970544,23.507104 40.069328,24.094736 38.029944,24.094736 C33.18996,24.094736 29.076384,20.188488 29.076384,15.071864 C29.076384,9.955848 33.18996,5.945632 38.029944,5.945632 C40.069328,5.945632 41.970544,6.568072 43.21512,7.536008 L43.21512,6.118608 L48.020296,6.118608 L48.020296,23.8526 L43.21512,23.8526 L43.21512,22.538864 L43.21512,22.538864 Z" id="Fill-6" fill="#2C2E31"></path>
                        <polygon id="Fill-7" fill="#2492AE" points="49.129744 6.084256 55.127512 14.951176 57.858496 10.9136 54.591864 6.084256"></polygon>
                        <polyline id="Fill-8" fill="#2C2E31" points="57.858496 18.9886 61.12528 23.818096 66.5874 23.818096 60.589632 14.951176 57.858496 18.9886"></polyline>
                        <polyline id="Fill-9" fill="#2492AE" points="49.129744 23.818096 54.591864 23.818096 57.858496 18.9886 55.127512 14.951176 49.129744 23.818096"></polyline>
                        <polyline id="Fill-10" fill="#2C2E31" points="66.5874 6.084256 61.12528 6.084256 57.858496 10.9136 60.589632 14.951176 66.5874 6.084256"></polyline>
                        <polyline id="Fill-11" fill="#1E7B9A" points="57.858496 10.9136 55.127512 14.951176 57.858496 18.9886 60.589632 14.951176 57.858496 10.9136"></polyline>
                    </g>
                </g>
            </g>
        </g>
    </g>
</svg>