<?xml version="1.0" encoding="UTF-8"?>
<svg width="58px" height="60px" viewBox="0 0 58 60" version="1.1" xmlns="http://www.w3.org/2000/svg" xmlns:xlink="http://www.w3.org/1999/xlink">
    <title>chart-icon_bids</title>
    <g id="MaxSold-Screens" stroke="none" stroke-width="1" fill="none" fill-rule="evenodd">
        <g id="Icons" transform="translate(-560.000000, -327.000000)">
            <g id="chart-icon_bids" transform="translate(560.000000, 327.000000)">
                <path d="M23,60 C10.2974508,60 1.55561363e-15,49.7025492 0,37 L0,23 C-1.55561363e-15,10.2974508 10.2974508,2.33342044e-15 23,0 L35,0 C47.7025492,-2.33342044e-15 58,10.2974508 58,23 L58,37 C58,49.7025492 47.7025492,60 35,60 L23,60 Z" id="Circle-2" fill="#FEC53D" opacity="0.209999993"></path>
                <g id="comment-dollar-solid" transform="translate(13.000000, 18.000000)" fill="#FFC400" fill-rule="nonzero">
                    <path d="M0,0 L0,23.9172511 L11.7980775,23.9172511 L16,28 L20.2019225,23.9172511 L32,23.9172511 L32,0 L0,0 Z M2.46153846,2.39172511 L29.5384615,2.39172511 L29.5384615,21.525526 L19.1826929,21.525526 L16,24.6179524 L12.8173071,21.525526 L2.46153846,21.525526 L2.46153846,2.39172511 Z M14.7692308,4.78345022 L14.7692308,6.203537 C13.3464615,6.70340755 12.3076923,8.02298567 12.3076923,9.56923596 C12.3076923,11.5364299 13.9753846,13.1568236 16,13.1568236 C16.6966154,13.1568236 17.2307692,13.675828 17.2307692,14.3526862 C17.2307692,15.0295444 16.6966154,15.5485487 16,15.5485487 C15.3033846,15.5485487 14.7692308,15.0295444 14.7692308,14.3526862 L12.3076923,14.3526862 C12.3076923,15.8989365 13.3464615,17.2161791 14.7692308,17.7160496 L14.7692308,19.1338009 L17.2307692,19.1338009 L17.2307692,17.7137141 C18.6535385,17.2138435 19.6923077,15.8942654 19.6923077,14.3480151 C19.6923077,12.3808212 18.0246154,10.7604275 16,10.7604275 C15.3033846,10.7604275 14.7692308,10.2414231 14.7692308,9.56456492 C14.7692308,8.88770671 15.3033846,8.36870236 16,8.36870236 C16.6966154,8.36870236 17.2307692,8.88770671 17.2307692,9.56456492 L19.6923077,9.56456492 C19.6923077,8.01831464 18.6535385,6.70107203 17.2307692,6.20120148 L17.2307692,4.78345022 L14.7692308,4.78345022 Z" id="Shape"></path>
                </g>
            </g>
        </g>
    </g>
</svg>