<?xml version="1.0" encoding="UTF-8"?>
<svg width="44px" height="44px" viewBox="0 0 44 44" version="1.1" xmlns="http://www.w3.org/2000/svg" xmlns:xlink="http://www.w3.org/1999/xlink">
    <title>invitation_team</title>
    <defs>
        <circle id="path-1" cx="22" cy="22" r="22"></circle>
    </defs>
    <g id="MaxSold-Screens" stroke="none" stroke-width="1" fill="none" fill-rule="evenodd">
        <g id="Icons" transform="translate(-326.000000, -335.000000)">
            <g id="invitation_team" transform="translate(326.000000, 335.000000)">
                <mask id="mask-2" fill="white">
                    <use xlink:href="#path-1"></use>
                </mask>
                <use id="Mask" fill="#FEF2D6" xlink:href="#path-1"></use>
                <g id="users-solid" mask="url(#mask-2)" fill="#FF8B00" fill-rule="nonzero">
                    <g transform="translate(8.000000, 12.000000)" id="Shape">
                        <path d="M9.5,0 C7.578125,0 6,1.578125 6,3.5 C6,5.421875 7.578125,7 9.5,7 C11.421875,7 13,5.421875 13,3.5 C13,1.578125 11.421875,0 9.5,0 Z M18.5,0 C16.578125,0 15,1.578125 15,3.5 C15,5.421875 16.578125,7 18.5,7 C20.421875,7 22,5.421875 22,3.5 C22,1.578125 20.421875,0 18.5,0 Z M9.5,2 C10.339844,2 11,2.660156 11,3.5 C11,4.339844 10.339844,5 9.5,5 C8.660156,5 8,4.339844 8,3.5 C8,2.660156 8.660156,2 9.5,2 Z M18.5,2 C19.339844,2 20,2.660156 20,3.5 C20,4.339844 19.339844,5 18.5,5 C17.660156,5 17,4.339844 17,3.5 C17,2.660156 17.660156,2 18.5,2 Z M5,6 C2.800781,6 1,7.800781 1,10 C1,11.113281 1.476563,12.117188 2.21875,12.84375 C0.886719,13.746094 0,15.28125 0,17 L2,17 C2,15.332031 3.332031,14 5,14 C6.667969,14 8,15.332031 8,17 L10,17 C10,15.28125 9.113281,13.746094 7.78125,12.84375 C8.523438,12.117188 9,11.113281 9,10 C9,7.800781 7.199219,6 5,6 Z M10,17 C9.375,17.835938 9,18.886719 9,20 L11,20 C11,18.332031 12.332031,17 14,17 C15.667969,17 17,18.332031 17,20 L19,20 C19,18.886719 18.625,17.835938 18,17 C17.660156,16.546875 17.25,16.160156 16.78125,15.84375 C17.523438,15.117188 18,14.113281 18,13 C18,10.800781 16.199219,9 14,9 C11.800781,9 10,10.800781 10,13 C10,14.113281 10.476563,15.117188 11.21875,15.84375 C10.75,16.160156 10.339844,16.546875 10,17 Z M18,17 L20,17 C20,15.332031 21.332031,14 23,14 C24.667969,14 26,15.332031 26,17 L28,17 C28,15.28125 27.113281,13.746094 25.78125,12.84375 C26.523438,12.117188 27,11.113281 27,10 C27,7.800781 25.199219,6 23,6 C20.800781,6 19,7.800781 19,10 C19,11.113281 19.476563,12.117188 20.21875,12.84375 C18.886719,13.746094 18,15.28125 18,17 Z M5,8 C6.117188,8 7,8.882813 7,10 C7,11.117188 6.117188,12 5,12 C3.882813,12 3,11.117188 3,10 C3,8.882813 3.882813,8 5,8 Z M23,8 C24.117188,8 25,8.882813 25,10 C25,11.117188 24.117188,12 23,12 C21.882813,12 21,11.117188 21,10 C21,8.882813 21.882813,8 23,8 Z M14,11 C15.117188,11 16,11.882813 16,13 C16,14.117188 15.117188,15 14,15 C12.882813,15 12,14.117188 12,13 C12,11.882813 12.882813,11 14,11 Z"></path>
                    </g>
                </g>
            </g>
        </g>
    </g>
</svg>