<?xml version="1.0" encoding="UTF-8"?>
<svg width="58px" height="60px" viewBox="0 0 58 60" version="1.1" xmlns="http://www.w3.org/2000/svg" xmlns:xlink="http://www.w3.org/1999/xlink">
    <title>invite_observer-team</title>
    <g id="MaxSold-Screens" stroke="none" stroke-width="1" fill="none" fill-rule="evenodd">
        <g id="Icons" transform="translate(-725.000000, -327.000000)" fill="#0094B1">
            <g id="invite_observer-team" transform="translate(725.000000, 327.000000)">
                <rect id="Circle-2" fill-opacity="0.5" opacity="0.209999993" x="0" y="0" width="58" height="60" rx="23"></rect>
                <path d="M22.5892857,14 C19.6378348,14 17.2142857,16.4460937 17.2142857,19.425 C17.2142857,22.4039062 19.6378348,24.85 22.5892857,24.85 C25.5407366,24.85 27.9642857,22.4039062 27.9642857,19.425 C27.9642857,16.4460937 25.5407366,14 22.5892857,14 Z M36.4107143,14 C33.4592634,14 31.0357143,16.4460937 31.0357143,19.425 C31.0357143,22.4039062 33.4592634,24.85 36.4107143,24.85 C39.3621652,24.85 41.7857143,22.4039062 41.7857143,19.425 C41.7857143,16.4460937 39.3621652,14 36.4107143,14 Z M22.5892857,17.1 C23.8790461,17.1 24.8928571,18.1232418 24.8928571,19.425 C24.8928571,20.7267582 23.8790461,21.75 22.5892857,21.75 C21.2995253,21.75 20.2857143,20.7267582 20.2857143,19.425 C20.2857143,18.1232418 21.2995253,17.1 22.5892857,17.1 Z M36.4107143,17.1 C37.7004747,17.1 38.7142857,18.1232418 38.7142857,19.425 C38.7142857,20.7267582 37.7004747,21.75 36.4107143,21.75 C35.1209539,21.75 34.1071429,20.7267582 34.1071429,19.425 C34.1071429,18.1232418 35.1209539,17.1 36.4107143,17.1 Z M15.6785714,23.3 C12.3011994,23.3 9.53571429,26.0912105 9.53571429,29.5 C9.53571429,31.2255855 10.2675789,32.7816414 11.4073661,33.9078125 C9.36174704,35.3064457 8,37.6859375 8,40.35 L11.0714286,40.35 C11.0714286,37.764648 13.1170476,35.7 15.6785714,35.7 C18.2400952,35.7 20.2857143,37.764648 20.2857143,40.35 L23.3571429,40.35 C23.3571429,37.6859375 21.9953958,35.3064457 19.9497768,33.9078125 C21.0895655,32.7816414 21.8214286,31.2255855 21.8214286,29.5 C21.8214286,26.0912105 19.0559435,23.3 15.6785714,23.3 Z M23.3571429,40.35 C22.3973214,41.6457039 21.8214286,43.2744144 21.8214286,45 L24.8928571,45 C24.8928571,42.414648 26.9384762,40.35 29.5,40.35 C32.0615238,40.35 34.1071429,42.414648 34.1071429,45 L37.1785714,45 C37.1785714,43.2744144 36.6026786,41.6457039 35.6428571,40.35 C35.1209539,39.6476562 34.4910714,39.0482418 33.7712054,38.5578125 C34.9109941,37.4316414 35.6428571,35.8755855 35.6428571,34.15 C35.6428571,30.7412105 32.877372,27.95 29.5,27.95 C26.122628,27.95 23.3571429,30.7412105 23.3571429,34.15 C23.3571429,35.8755855 24.0890075,37.4316414 25.2287946,38.5578125 C24.5089286,39.0482418 23.8790461,39.6476562 23.3571429,40.35 Z M35.6428571,40.35 L38.7142857,40.35 C38.7142857,37.764648 40.7599048,35.7 43.3214286,35.7 C45.8829524,35.7 47.9285714,37.764648 47.9285714,40.35 L51,40.35 C51,37.6859375 49.638253,35.3064457 47.5926339,33.9078125 C48.7324226,32.7816414 49.4642857,31.2255855 49.4642857,29.5 C49.4642857,26.0912105 46.6988006,23.3 43.3214286,23.3 C39.9440565,23.3 37.1785714,26.0912105 37.1785714,29.5 C37.1785714,31.2255855 37.910436,32.7816414 39.0502232,33.9078125 C37.0046042,35.3064457 35.6428571,37.6859375 35.6428571,40.35 Z M15.6785714,26.4 C17.394253,26.4 18.75,27.7683602 18.75,29.5 C18.75,31.2316414 17.394253,32.6 15.6785714,32.6 C13.9628914,32.6 12.6071429,31.2316414 12.6071429,29.5 C12.6071429,27.7683602 13.9628914,26.4 15.6785714,26.4 Z M43.3214286,26.4 C45.0371101,26.4 46.3928571,27.7683602 46.3928571,29.5 C46.3928571,31.2316414 45.0371101,32.6 43.3214286,32.6 C41.6057485,32.6 40.25,31.2316414 40.25,29.5 C40.25,27.7683602 41.6057485,26.4 43.3214286,26.4 Z M29.5,31.05 C31.2156816,31.05 32.5714286,32.4183601 32.5714286,34.15 C32.5714286,35.8816414 31.2156816,37.25 29.5,37.25 C27.78432,37.25 26.4285714,35.8816414 26.4285714,34.15 C26.4285714,32.4183601 27.78432,31.05 29.5,31.05 Z" id="Shape" fill-rule="nonzero"></path>
            </g>
        </g>
    </g>
</svg>