<?xml version="1.0" encoding="UTF-8"?>
<svg width="58px" height="60px" viewBox="0 0 58 60" version="1.1" xmlns="http://www.w3.org/2000/svg" xmlns:xlink="http://www.w3.org/1999/xlink">
    <title>Icon/Sell-thru@3x</title>
    <g id="UI" stroke="none" stroke-width="1" fill="none" fill-rule="evenodd">
        <g id="Auction-Detail-View" transform="translate(-1289.000000, -2779.000000)" fill="#FF9066">
            <g id="Auction-Metrics" transform="translate(269.000000, 2672.000000)">
                <g id="Views" transform="translate(839.000000, 90.000000)">
                    <g id="Icon/Sell-thru" transform="translate(181.000000, 17.000000)">
                        <path d="M23,60 C10.2974508,60 1.55561363e-15,49.7025492 0,37 L0,23 C-1.55561363e-15,10.2974508 10.2974508,2.33342044e-15 23,0 L35,0 C47.7025492,-2.33342044e-15 58,10.2974508 58,23 L58,37 C58,49.7025492 47.7025492,60 35,60 L23,60 Z" id="Circle-2" opacity="0.3"></path>
                        <g id="icon" transform="translate(15.466667, 15.000000)">
                            <path d="M12.7086454,8.34718934 L13.079336,8.34718934 C13.3368438,8.34718934 13.5522392,8.54276718 13.5770161,8.79908026 L14.1777778,15.013856 L14.1777778,15.013856 L18.443325,17.5353617 C18.5955206,17.6253296 18.6888889,17.7889842 18.6888889,17.9657828 L18.6888889,18.3532716 C18.6888889,18.629414 18.4650313,18.8532716 18.1888889,18.8532716 C18.1429858,18.8532716 18.0973014,18.8469505 18.053123,18.8344863 L11.9931492,17.1247759 C11.7643721,17.0602306 11.6126647,16.8435375 11.6302918,16.606484 L12.210022,8.81011222 C12.2294325,8.54907444 12.4468869,8.34718934 12.7086454,8.34718934 Z" id="Path-107" opacity="0.779999971"></path>
                            <path d="M27.0666667,15.013856 C27.0666667,22.6399249 21.1724521,28.8418549 13.8396858,29.0103397 L13.5333333,29.013856 L13.5333333,29.013856 C6.05907972,29.013856 0,22.7458425 0,15.013856 C0,13.7006992 0.1747663,12.4297687 0.501550024,11.224598 L2.98353386,11.944805 C2.71532816,12.9339413 2.57777778,13.9630912 2.57777778,15.013856 C2.57777778,21.2730832 7.48274707,26.3471893 13.5333333,26.3471893 C19.5839196,26.3471893 24.4888889,21.2730832 24.4888889,15.013856 C24.4888889,8.85398165 19.7383971,3.841904 13.8205755,3.68434242 L13.5333333,3.68052267 L13.5333333,3.68052267 C12.3077212,3.68052267 11.1141035,3.8882801 9.98842788,4.28605441 L11.4436193,6.08196685 C11.5068786,6.15995597 11.5451889,6.25518605 11.5535612,6.35525574 C11.5765842,6.63043669 11.3721697,6.87217873 11.0969888,6.89520171 L11.0969888,6.89520171 L4.87705087,7.41559194 C4.82154554,7.42023579 4.76565436,7.41557262 4.71168597,7.40179506 C4.44412483,7.33348953 4.28259625,7.06121579 4.35090179,6.79365465 L4.35090179,6.79365465 L5.94093634,0.565294807 C5.9675212,0.461158652 6.02695338,0.368360282 6.11042297,0.300655622 C6.32488469,0.126699361 6.63975968,0.159535526 6.81371594,0.373997249 L6.81371594,0.373997249 L8.23674157,2.12669108 L8.23674157,2.12669108 L8.24682707,2.12225455 C9.87092828,1.40863379 11.6575649,1.01385601 13.5333333,1.01385601 C21.0075869,1.01385601 27.0666667,7.28186951 27.0666667,15.013856 Z" id="Combined-Shape" opacity="0.901274182"></path>
                        </g>
                    </g>
                </g>
            </g>
        </g>
    </g>
</svg>