<?xml version="1.0" encoding="UTF-8"?>
<svg width="58px" height="60px" viewBox="0 0 58 60" version="1.1" xmlns="http://www.w3.org/2000/svg" xmlns:xlink="http://www.w3.org/1999/xlink">
    <title>chart-icon_views</title>
    <g id="MaxSold-Screens" stroke="none" stroke-width="1" fill="none" fill-rule="evenodd">
        <g id="Icons" transform="translate(-478.000000, -327.000000)" fill="#8280FF">
            <g id="chart-icon_views" transform="translate(478.000000, 327.000000)">
                <path d="M23,60 C10.2974508,60 1.55561363e-15,49.7025492 0,37 L0,23 C-1.55561363e-15,10.2974508 10.2974508,2.33342044e-15 23,0 L35,0 C47.7025492,-2.33342044e-15 58,10.2974508 58,23 L58,37 C58,49.7025492 47.7025492,60 35,60 L23,60 Z" id="Circle-2" opacity="0.209999993"></path>
                <g id="Group" transform="translate(13.533333, 18.000000)" fill-rule="nonzero">
                    <path d="M23.2,6.66666667 C25.335501,6.66666667 27.0666667,8.45752767 27.0666667,10.6666667 C27.0666667,12.8758057 25.335501,14.6666667 23.2,14.6666667 C21.064499,14.6666667 19.3333333,12.8758057 19.3333333,10.6666667 C19.3333333,8.45752767 21.064499,6.66666667 23.2,6.66666667 Z M11.6,0 C14.4473347,0 16.7555556,2.38781467 16.7555556,5.33333333 C16.7555556,8.278852 14.4473347,10.6666667 11.6,10.6666667 C8.75266529,10.6666667 6.44444444,8.278852 6.44444444,5.33333333 C6.44444444,2.38781467 8.75266529,0 11.6,0 Z" id="Combined-Shape" opacity="0.587820871"></path>
                    <path d="M22.6863406,16.0013116 L22.5400486,16 C26.9969101,16 30.6586201,18.2931929 30.9313919,23.2 C30.9422584,23.3954741 30.9313919,24 30.2321133,24 L25.2622222,24 L25.2622222,24 C25.2622222,20.9989731 24.3038073,18.2295149 22.6863406,16.0013116 Z M11.5785288,13.3333333 C17.7495678,13.3333333 22.8196279,16.3909238 23.1973118,22.9333333 C23.2123577,23.1939654 23.1973118,24 22.2290799,24 L0.937669537,24 L0.937669537,24 C0.614429,24 -0.0263729228,23.2789066 0.000839948641,22.932274 C0.500422099,16.5686878 5.49313147,13.3333333 11.5785288,13.3333333 Z" id="Combined-Shape"></path>
                </g>
            </g>
        </g>
    </g>
</svg>